<svg xmlns="http://www.w3.org/2000/svg" xmlns:xlink="http://www.w3.org/1999/xlink" width="160" height="160" version="1.1" viewBox="-219 321 160 160"><path fill="#E4B885" d="M-145.2,394.5l-14.2,20.5l-14.2-20.5c0-7.8,14.2-52.7,14.2-52.7S-145.2,386.7-145.2,394.5z"/><path fill="#231F20" d="M-159.4,341.8c0,0-4.4,13.9-8.3,27.6l1.3-1.3l1.6,5.5l3.3-4.7l2.6,5.1l2.4-5.2l3.5,4.6l1.4-5.5 C-155.3,354.8-159.4,341.8-159.4,341.8z"/><polygon fill="#FCBA0F" points="-166.5 464 -173.6 458.7 -173.6 394.5 -166.5 399.7"/><rect width="14.2" height="64.2" x="-166.5" y="399.7" fill="#EDDB00"/><polygon fill="#FFF56F" points="-145.2 458.7 -152.3 464 -152.3 399.7 -145.2 394.5"/><polygon fill="#FCBA0F" points="-125.7 464 -132.8 458.7 -132.8 394.5 -125.7 399.7"/><rect width="14.2" height="64.2" x="-125.7" y="399.7" fill="#EDDB00"/><polygon fill="#FFF56F" points="-104.4 458.7 -111.5 464 -111.5 399.7 -104.4 394.5"/><path fill="#A6A8AB" d="M-132.8,369.6v24.9c0,4.8,6.4,8.7,14.2,8.7c7.8,0,14.2-3.9,14.2-8.7v-24.9H-132.8z"/><ellipse cx="-118.6" cy="369.6" fill="#808284" rx="14.2" ry="8.7"/><path fill="#F399C0" d="M-131.7,354.3v13.2c0,4.5,5.9,8.1,13.1,8.1c7.2,0,13.1-3.6,13.1-8.1v-13.2H-131.7z"/><ellipse cx="-118.6" cy="354.3" fill="#CC80A3" rx="13.1" ry="8.1"/><ellipse cx="-108.5" cy="380.8" fill="#808284" rx="1.4" ry="2.1"/><ellipse cx="-107.9" cy="393.2" fill="#808284" rx="1.4" ry="2.1"/><ellipse cx="-128.7" cy="380.8" fill="#808284" rx="1.4" ry="2.1"/><ellipse cx="-129.2" cy="393.2" fill="#808284" rx="1.4" ry="2.1"/></svg>