<svg xmlns="http://www.w3.org/2000/svg" xmlns:xlink="http://www.w3.org/1999/xlink" width="160" height="160" version="1.1" viewBox="0 0 160 160"><circle cx="80.744" cy="82.7" r="58.452" fill="#A26D3A"/><circle cx="80.575" cy="82.755" r="48.756" fill="#F1F1F2"/><path fill="#A6A8AB" d="M44.61234,108.00656c-0.81828,0.66637-0.69439,1.00884,0.25712,0.42087 s37.49088-23.13256,37.49088-23.13256l-3.56998-5.08144C78.79035,80.21342,45.43289,107.3403,44.61234,108.00656z"/><path fill="#A6A8AB" d="M101.79782,103.74805c0.339,0.02694,0.39741-0.01053,0.5237-0.29458 c0.12389-0.28406-19.55899-22.89867-19.55899-22.89867l-4.37665,4.3988C78.38588,84.95361,101.45882,103.72005,101.79782,103.74805z"/><ellipse cx="80.575" cy="82.755" fill="#6D6E70" rx="3.094" ry="3.111"/><line x1="80.904" x2="65.572" y1="83.086" y2="50.591" fill="#6D6E70" stroke="#6D6E70" stroke-width=".989"/><rect width="1.031" height="5.56" x="80.464" y="36.421" fill="#6D6E70" stroke="#6D6E70" stroke-width=".989"/><rect width="5.557" height="1.03" x="121.598" y="82.929" fill="#6D6E70" stroke="#6D6E70" stroke-width=".989"/><rect width="1.031" height="5.56" x="79.711" y="123.968" fill="#6D6E70" stroke="#6D6E70" stroke-width=".989"/><rect width="5.56" height="1.031" x="34.05" y="81.987" fill="#6D6E70" stroke="#6D6E70" stroke-width=".989"/><polygon fill="#6D6E70" stroke="#6D6E70" stroke-width=".989" points="60.082 47.486 60.655 47.156 59.552 45.336 59.021 45.64"/><polygon fill="#6D6E70" stroke="#6D6E70" stroke-width=".989" points="116.092 62.452 116.422 63.024 118.243 61.919 117.936 61.391"/><polygon fill="#6D6E70" stroke="#6D6E70" stroke-width=".989" points="101.124 118.462 100.554 118.791 101.66 120.611 102.188 120.305"/><polygon fill="#6D6E70" stroke="#6D6E70" stroke-width=".989" points="45.115 103.494 44.785 102.924 42.966 104.029 43.273 104.556"/><polygon fill="#6D6E70" stroke="#6D6E70" stroke-width=".989" points="45.087 62.501 45.416 61.93 43.551 60.906 43.245 61.435"/><polygon fill="#6D6E70" stroke="#6D6E70" stroke-width=".989" points="101.075 47.458 101.648 47.787 102.672 45.921 102.141 45.613"/><polygon fill="#6D6E70" stroke="#6D6E70" stroke-width=".989" points="116.118 103.447 115.79 104.018 117.656 105.042 117.962 104.513"/><polygon fill="#6D6E70" stroke="#6D6E70" stroke-width=".989" points="60.131 118.49 59.561 118.159 58.537 120.026 59.065 120.332"/></svg>